<svg width="70" height="45" fill="none" xmlns="http://www.w3.org/2000/svg"><rect width="70" height="45" rx="3" fill="#F4B223"/><path d="M18.166 8h20.38a3 3 0 0 1 3 3v5.378a3 3 0 0 0 3 3h6.675a3 3 0 0 1 2.364 1.153l1.328 1.701a3 3 0 0 1 .631 1.673l.274 4.74a3 3 0 0 1-2.96 3.173l-1.874.021m-32.138.37 3.486-.04m19.215-.22-9.863.113" stroke="#fff" stroke-width="2" stroke-linecap="round" stroke-linejoin="round"/><path d="M41.547 10.823H46.7a3 3 0 0 1 2.763 1.831l2.881 6.81M16.125 13.732h13.179M14 19.121h13.433M16.21 24.852h7.652M31.704 31.61c0 2.43-1.956 4.39-4.356 4.39s-4.356-1.96-4.356-4.39c0-2.43 1.956-4.389 4.356-4.389s4.357 1.96 4.357 4.39ZM50.579 31.61c0 2.43-1.956 4.39-4.356 4.39s-4.357-1.96-4.357-4.39c0-2.43 1.957-4.389 4.357-4.389 2.4 0 4.356 1.96 4.356 4.39Z" stroke="#fff" stroke-width="2" stroke-linecap="round" stroke-linejoin="round"/></svg>