<svg width="49" height="48" fill="none" xmlns="http://www.w3.org/2000/svg"><g clip-path="url('#clip0_324_704')" fill-rule="evenodd" clip-rule="evenodd"><path d="M47.636 29.637c.267 0 .479.211.479.492a.478.478 0 0 1-.48.495.479.479 0 0 1-.482-.495c0-.28.211-.492.483-.492v-.099a.591.591 0 1 0 0 1.185.591.591 0 1 0 0-1.185v.099Z" fill="#000"/><path d="M47.51 29.877h.141c.072 0 .149.015.149.1 0 .104-.078.11-.166.11h-.124v.089h.12l.18.296h.115l-.194-.301c.1-.013.178-.066.178-.188 0-.135-.08-.194-.242-.194h-.26v.683h.103v-.596Zm.108-5.896c0-7.741-6.276-14.017-14.017-14.017a13.959 13.959 0 0 0-8.938 3.22 13.968 13.968 0 0 0-8.964-3.22c-7.74 0-14.016 6.276-14.016 14.017s6.275 14.017 14.016 14.017c3.406 0 6.536-1.2 8.964-3.22a13.96 13.96 0 0 0 8.938 3.22c7.742 0 14.017-6.276 14.017-14.017Z" fill="#000"/><path d="M46.589 23.981c0-7.172-5.815-12.987-12.987-12.987-3.113 0-5.945 1.089-8.181 2.915a13.997 13.997 0 0 1 3.706 6.04H28.05a12.95 12.95 0 0 0-3.409-5.368 12.995 12.995 0 0 0-3.386 5.362h-1.08a14.016 14.016 0 0 1 3.67-6.025c-2.231-1.807-5.05-2.924-8.145-2.924-7.172 0-12.987 5.814-12.987 12.987 0 7.172 5.815 12.987 12.987 12.987 3.095 0 5.914-1.117 8.145-2.925a14.01 14.01 0 0 1-3.67-6.025h1.08a12.986 12.986 0 0 0 3.386 5.363 12.944 12.944 0 0 0 3.409-5.369h1.078a13.997 13.997 0 0 1-3.706 6.04 12.857 12.857 0 0 0 8.18 2.916c7.173 0 12.988-5.814 12.988-12.987Z" fill="#fff"/><path d="m37.044 27.024.896-4.806h1.134l.119.474c.202-.238.592-.474 1.252-.474l-.356 1.252c-.32 0-.93-.084-1.32 1.354l-.405 2.2h-1.32Zm-17.378-6.027h1.307l-.268 1.273h.703l-.234 1.039h-.67l-.369 1.943c-.067.368-.033.703.72.586l-.083.971c-.285.185-.67.235-.972.235-.3 0-1.29-.184-1.038-1.49l.904-4.557Zm5.663 3.886c.15-.77.503-2.68-1.793-2.68-2.11 0-2.379 2.094-2.429 2.395-.05.302-.084 2.43 2.178 2.43.553.016 1.357-.05 1.675-.218l.201-.989c-.2.05-.955.118-1.474.118-.52 0-1.357.033-1.206-1.056h2.848Z" fill="#000"/><path d="M22.565 24.012h1.625c.083-.469-.067-.87-.587-.87-.52-.001-.887.267-1.038.87Z" fill="#fff"/><path d="m18.427 23.342.301-.972c-.62-.234-1.105-.184-1.29-.184-.184 0-1.753-.02-1.993 1.14-.185.887.14 1.255.452 1.39.502.217.788.418 1.056.553.331.165.27.72-.168.72-.201 0-1.073.1-1.726-.117l-.184.988c.603.168 1.089.168 1.541.168.318 0 1.877.084 2.094-1.357.107-.703-.2-1.022-.452-1.173a7.368 7.368 0 0 0-.938-.52c-.268-.117-.47-.569.017-.703.301-.034.921-.034 1.29.067ZM9.95 27.027l1.09-5.796H8.894l-1.592 3.518-.251-3.518H4.958l-1.123 5.796h1.307l.804-4.188.352 4.188h1.24l1.826-4.087-.77 4.087H9.95Zm1.44-4.673-.2 1.038c.318-.033 1.172-.167 1.624-.15.453.016.955-.051.805.669-.335.034-2.68-.335-3.05 1.675-.15.99.704 1.492 1.374 1.458.67-.034.855-.118 1.09-.285l.167.268h1.223l.52-2.613c.133-.654.35-2.229-1.844-2.229-.402.018-.854 0-1.708.169Z" fill="#000"/><path d="M13.401 24.883c-.218-.033-.704-.168-1.123.117-.418.285-.536.788-.1.955.42.162 1.038-.116 1.123-.552l.1-.52Z" fill="#fff"/><path d="M32.566 22.571c-.336-.201-.57-.234-1.005-.234-.436 0-1.408.416-1.592 1.591-.218 1.39.737 2.077 2.077 1.625l.386 1.173c-.436.2-.871.301-1.592.301-1.357 0-2.83-1.206-2.16-3.652.493-1.802 2.044-2.462 2.948-2.429 1.072.04 1.458.402 1.792.77l-.854.855Zm11.14.201c-.251-.184-.402-.57-1.022-.57-.72 0-1.842-.133-2.479 2.044-.425 1.457.435 2.781 1.373 2.781.436-.016.872-.2 1.14-.385l.168.385h1.407l1.139-6.097h-1.374l-.352 1.842Z" fill="#000"/><path d="M43.237 24.732c.134-.435.061-.98-.084-1.172-.402-.536-1.326-.113-1.608.938-.184.686.218 1.206.67 1.206.486 0 .787-.385 1.022-.972Z" fill="#fff"/><path d="m33.504 22.354-.201 1.038c.318-.033 1.173-.167 1.625-.15.452.016.955-.051.804.669-.335.034-2.68-.335-3.049 1.675-.15.99.703 1.492 1.374 1.458.67-.034.854-.118 1.089-.285l.167.268h1.223l.52-2.613c.133-.654.351-2.229-1.844-2.229-.402.018-.854 0-1.708.169Z" fill="#000"/><path d="M35.514 24.883c-.218-.033-.703-.168-1.122.117-.42.285-.536.788-.1.955.42.162 1.038-.116 1.122-.552l.1-.52Z" fill="#fff"/><path d="m25.367 27.027.887-4.757h1.123l.117.469c.201-.235.586-.47 1.24-.47l-.336 1.257c-.318 0-.938-.1-1.323 1.324l-.402 2.177h-1.306Z" fill="#000"/></g><defs><clipPath id="clip0_324_704"><path fill="#fff" transform="translate(.977)" d="M0 0h47.962v47.962H0z"/></clipPath></defs></svg>