<svg width="41" height="41" fill="none" xmlns="http://www.w3.org/2000/svg"><path d="M9.678 11h14.03a1 1 0 0 1 1 1v5.454a1 1 0 0 0 1 1h5.667a1 1 0 0 1 .794.392l1.316 1.718a1 1 0 0 1 .205.552l.25 4.42a1 1 0 0 1-.986 1.057l-2.179.026m-20.66.242 2.241-.026m12.353-.145-6.34.075" stroke="#F4B223" stroke-linecap="round" stroke-linejoin="round"/><path d="M24.709 12.85h3.923a1 1 0 0 1 .924.616l2.094 5.044M8.366 14.755h8.472M7 18.286h8.636M8.421 22.041h4.92M18.524 26.469c0 1.686-1.33 3.031-2.943 3.031-1.614 0-2.943-1.345-2.943-3.031 0-1.686 1.33-3.031 2.943-3.031 1.614 0 2.943 1.345 2.943 3.031ZM30.658 26.469c0 1.686-1.33 3.031-2.943 3.031-1.614 0-2.944-1.345-2.944-3.031 0-1.686 1.33-3.031 2.944-3.031 1.613 0 2.943 1.345 2.943 3.031Z" stroke="#F4B223" stroke-linecap="round" stroke-linejoin="round"/><circle cx="20.5" cy="20.5" r="20" stroke="#F4B223"/></svg>