<svg width="41" height="41" fill="none" xmlns="http://www.w3.org/2000/svg"><circle cx="20.5" cy="20.5" r="20" stroke="#F4B223"/><path fill-rule="evenodd" clip-rule="evenodd" d="M20.968 10.02a.5.5 0 0 0-.282 0l-8.5 2.5a.5.5 0 0 0-.344.358l.485.122-.485-.121v.001l-.002.005-.004.018-.016.065-.057.25a34.218 34.218 0 0 0-.631 3.951c-.234 2.373-.25 5.365.74 7.538.975 2.142 3.196 4.082 5.1 5.459a34.045 34.045 0 0 0 3.543 2.235l.06.031.015.008.004.003h.002l.231-.443-.23.444a.5.5 0 0 0 .483-.013L20.827 32l.253.431h.002l.004-.003.014-.009.055-.032.204-.125a35.635 35.635 0 0 0 3.092-2.166c1.78-1.397 3.862-3.333 4.828-5.383 1.015-2.152 1.131-5.135 1.016-7.512a36.027 36.027 0 0 0-.418-3.955 20.65 20.65 0 0 0-.042-.25l-.012-.065-.003-.018-.001-.005v-.001l-.492.093.491-.094a.5.5 0 0 0-.35-.386l-8.5-2.5Zm-8.23 3.416.01-.038 8.079-2.377 8.061 2.371.003.017a34.99 34.99 0 0 1 .405 3.84c.114 2.357-.02 5.124-.921 7.038-.86 1.823-2.778 3.638-4.541 5.022a34.646 34.646 0 0 1-3.001 2.102l-.02.013-.034-.019a33.074 33.074 0 0 1-3.221-2.05c-1.888-1.365-3.917-3.175-4.776-5.062-.871-1.914-.887-4.673-.655-7.027a33.208 33.208 0 0 1 .612-3.83ZM25.4 18.8a.5.5 0 0 0-.8-.6l-4.133 5.51-3.593-4.042a.5.5 0 1 0-.748.664l4 4.5a.5.5 0 0 0 .774-.032l4.5-6Z" fill="#F4B223"/></svg>