<svg width="41" height="41" fill="none" xmlns="http://www.w3.org/2000/svg"><circle cx="20.5" cy="20.5" r="20" stroke="#F4B223"/><path fill-rule="evenodd" clip-rule="evenodd" d="M20.034 8.948a1.33 1.33 0 0 1 .185-.31c.107-.143.245-.29.396-.408.319-.249.562-.278.758-.161l.988.591-5.133 8.341h-1.844l4.609-7.96c.017-.03.03-.06.041-.093Zm-1.631 8.053 4.817-7.827 1.17.7-4.401 7.127h-1.587Zm1.68 1a.5.5 0 0 0 .334 0h7.715a.5.5 0 0 0 .335 0H29.5a.5.5 0 1 0 0-1h-.21l.404-.527.096-.124c.341-.442.699-.91.979-1.337A1.424 1.424 0 0 1 32 16.423v3.078h-5a2.5 2.5 0 0 0 0 5h5v3.1a1.5 1.5 0 0 1-1.5 1.5h-19a1.5 1.5 0 0 1-1.5-1.5v-11.18a1.5 1.5 0 0 1 1.5-1.5h3.932l-1.204 2.08H12.5a.5.5 0 0 0 0 1h1.832c.11.04.23.038.335 0h2.655a.5.5 0 0 0 .335 0h2.425Zm1.081-1 4.085-6.613c1.46.875 3.027 1.816 4.172 2.51a.498.498 0 0 0 .134.056c.021.015.053.039.092.075.098.089.215.221.312.377.206.33.244.618.112.838-.258.43-.655.953-1.073 1.495l-.104.135c-.298.386-.6.778-.842 1.127h-6.888ZM16 13.941l3.105-5.363c.067-.172.182-.363.314-.54A3.21 3.21 0 0 1 20 7.442c.448-.349 1.163-.664 1.887-.23.212.127.62.37 1.152.69h.002c1.758 1.052 4.878 2.918 6.83 4.1a.781.781 0 0 1 .196.093c.084.053.17.12.252.194.163.148.34.35.488.588.19.305.369.732.34 1.191A2.424 2.424 0 0 1 33 16.423v11.179a2.5 2.5 0 0 1-2.5 2.5h-19a2.5 2.5 0 0 1-2.5-2.5v-11.18a2.5 2.5 0 0 1 2.5-2.5H16v.02Zm15.5 6.56H27a1.5 1.5 0 0 0 0 3h4.5v-3Z" fill="#F4B223"/></svg>