<svg width="70" height="45" viewBox="0 0 70 45" fill="none" xmlns="http://www.w3.org/2000/svg">
<rect width="70" height="45" rx="3" fill="#F4B223"/>
<path d="M18.166 8H38.5465C40.2034 8 41.5465 9.34315 41.5465 11V16.3776C41.5465 18.0344 42.8897 19.3776 44.5465 19.3776H51.2205C52.1443 19.3776 53.0165 19.8031 53.585 20.5312L54.9135 22.2324C55.2888 22.713 55.5087 23.2966 55.544 23.9054L55.8184 28.6447C55.9173 30.3532 54.5692 31.7982 52.8579 31.8179L50.9838 31.8395M18.8461 32.2094L22.332 32.1693M41.5465 31.9481L31.6842 32.0616" stroke="white" stroke-width="2" stroke-linecap="round" stroke-linejoin="round"/>
<path d="M41.5466 10.823H46.7001C47.9053 10.823 48.9934 11.5441 49.463 12.654L52.3441 19.4631" stroke="white" stroke-width="2" stroke-linecap="round" stroke-linejoin="round"/>
<path d="M16.1255 13.7316H29.3037" stroke="white" stroke-width="2" stroke-linecap="round" stroke-linejoin="round"/>
<path d="M14 19.121H27.4332" stroke="white" stroke-width="2" stroke-linecap="round" stroke-linejoin="round"/>
<path d="M16.2105 24.8525H23.8624" stroke="white" stroke-width="2" stroke-linecap="round" stroke-linejoin="round"/>
<path d="M31.7045 31.6106C31.7045 34.0406 29.7483 36 27.3482 36C24.9481 36 22.9919 34.0406 22.9919 31.6106C22.9919 29.1806 24.9481 27.2212 27.3482 27.2212C29.7483 27.2212 31.7045 29.1806 31.7045 31.6106Z" stroke="white" stroke-width="2" stroke-linecap="round" stroke-linejoin="round"/>
<path d="M50.5789 31.6106C50.5789 34.0406 48.6228 36 46.2227 36C43.8226 36 41.8664 34.0406 41.8664 31.6106C41.8664 29.1806 43.8226 27.2212 46.2227 27.2212C48.6228 27.2212 50.5789 29.1806 50.5789 31.6106Z" stroke="white" stroke-width="2" stroke-linecap="round" stroke-linejoin="round"/>
</svg>
