<svg width="49" height="48" viewBox="0 0 49 48" fill="none" xmlns="http://www.w3.org/2000/svg">
<g clip-path="url(#clip0_324_704)">
<path fill-rule="evenodd" clip-rule="evenodd" d="M47.6356 29.6369C47.9033 29.6369 48.1148 29.8484 48.1148 30.1288C48.1148 30.4139 47.9033 30.6239 47.6356 30.6239C47.3644 30.6239 47.1531 30.4139 47.1531 30.1288C47.1529 29.8484 47.3644 29.6369 47.6356 29.6369V29.5383C47.3094 29.5383 47.0339 29.7891 47.0339 30.1288C47.0339 30.4719 47.3094 30.7227 47.6356 30.7227C47.9583 30.7227 48.2338 30.4719 48.2338 30.1288C48.2338 29.7891 47.9583 29.5383 47.6356 29.5383V29.6369Z" fill="black"/>
<path fill-rule="evenodd" clip-rule="evenodd" d="M47.5102 29.8765H47.651C47.7229 29.8765 47.7998 29.8924 47.7998 29.9765C47.7998 30.0815 47.7217 30.0877 47.6336 30.0877H47.5102V30.1758H47.6294L47.8093 30.4717H47.9255L47.7311 30.1709C47.8312 30.1582 47.9086 30.1052 47.9086 29.9832C47.9086 29.8481 47.8284 29.7889 47.6669 29.7889H47.4069V30.4717H47.5104L47.5102 29.8765ZM47.6179 23.9812C47.6179 16.2398 41.3424 9.96431 33.6013 9.96431C30.3372 9.95936 27.1745 11.0985 24.6632 13.1836C22.2344 11.1639 19.1047 9.96431 15.6994 9.96431C7.95827 9.96431 1.6825 16.2401 1.6825 23.9812C1.6825 31.7223 7.95827 37.9978 15.6994 37.9978C19.105 37.9978 22.2347 36.798 24.6632 34.7785C27.1746 36.8635 30.3372 38.0026 33.6013 37.9978C41.3426 37.9978 47.6179 31.7223 47.6179 23.9812Z" fill="black"/>
<path fill-rule="evenodd" clip-rule="evenodd" d="M46.5887 23.9812C46.5887 16.8086 40.774 10.9939 33.6015 10.9939C30.4887 10.9939 27.6574 12.083 25.4205 13.9089C27.1261 15.5558 28.4287 17.6186 29.1274 19.9498H28.0485C27.3725 17.8771 26.1844 16.0482 24.6404 14.5807C23.0861 16.0611 21.9227 17.9035 21.2542 19.9433L20.1748 19.9435C20.864 17.655 22.1271 15.5807 23.8439 13.9178C21.6128 12.1109 18.7941 10.9937 15.6993 10.9937C8.52699 10.9937 2.71228 16.8084 2.71228 23.9809C2.71228 31.1534 8.52699 36.9677 15.6993 36.9677C18.7941 36.9677 21.613 35.8509 23.8439 34.0435C22.127 32.381 20.8639 30.3068 20.1748 28.0183H21.2542C21.9224 30.0581 23.0858 31.9005 24.6404 33.3806C26.1844 31.9136 27.3725 30.0848 28.0485 28.0121H29.1274C28.4285 30.3433 27.1261 32.4058 25.4205 34.0527C27.6574 35.8786 30.4887 36.9677 33.6015 36.9677C40.7738 36.9679 46.5887 31.1537 46.5887 23.9812Z" fill="white"/>
<path fill-rule="evenodd" clip-rule="evenodd" d="M37.0435 27.0237L37.9402 22.2177H39.0741L39.1928 22.6915C39.3953 22.4544 39.7852 22.2177 40.4446 22.2177L40.0893 23.4698C39.7681 23.4698 39.1587 23.3855 38.7698 24.8236L38.3635 27.0237H37.0435ZM19.6663 20.9968H20.9731L20.7049 22.27H21.4083L21.1739 23.3086H20.5038L20.1353 25.2516C20.0681 25.6204 20.102 25.9553 20.8559 25.8381L20.772 26.8095C20.4871 26.9936 20.102 27.0441 19.8004 27.0441C19.4991 27.0441 18.5103 26.8595 18.7621 25.5532L19.6663 20.9968ZM25.329 24.8831C25.4795 24.1123 25.8316 22.2028 23.5365 22.2028C21.4255 22.2028 21.1575 24.2971 21.1072 24.5982C21.0572 24.9 21.0234 27.0272 23.2849 27.0272C23.8378 27.0441 24.642 26.9772 24.9605 26.8095L25.1613 25.8214C24.9605 25.8714 24.2065 25.9386 23.687 25.9386C23.1677 25.9386 22.3304 25.9722 22.4807 24.8831H25.329Z" fill="black"/>
<path fill-rule="evenodd" clip-rule="evenodd" d="M22.5646 24.0123H24.1896C24.2735 23.543 24.1227 23.1411 23.6034 23.1411C23.0839 23.1409 22.7156 23.4091 22.5646 24.0123Z" fill="white"/>
<path fill-rule="evenodd" clip-rule="evenodd" d="M18.4268 23.3419L18.7282 22.3703C18.1081 22.1359 17.6226 22.1859 17.438 22.1859C17.2539 22.1859 15.6851 22.1667 15.4447 23.3253C15.2603 24.2131 15.5855 24.5808 15.8968 24.7154C16.3994 24.9331 16.6846 25.1344 16.9526 25.2686C17.284 25.4343 17.2233 25.9889 16.7849 25.9889C16.5836 25.9889 15.7124 26.0894 15.0593 25.8717L14.8752 26.8598C15.4783 27.0275 15.9638 27.0275 16.4164 27.0275C16.7344 27.0275 18.2925 27.1116 18.5102 25.6706C18.6167 24.968 18.3091 24.6487 18.0581 24.498C17.807 24.3302 17.388 24.0961 17.1198 23.9784C16.8518 23.8615 16.6508 23.4091 17.1367 23.2752C17.4383 23.2412 18.0581 23.2412 18.4268 23.3419ZM9.95024 27.0272L11.0391 21.2309H8.89499L7.30303 24.749L7.05196 21.2309H4.95788L3.83545 27.0272H5.14201L5.94595 22.8393L6.29804 27.0272H7.53791L9.36401 22.9398L8.59316 27.0272H9.95024ZM11.3907 22.3536L11.1894 23.3919C11.5081 23.3586 12.3623 23.2247 12.8144 23.2412C13.267 23.2581 13.7694 23.1909 13.6186 23.911C13.2835 23.9451 10.9381 23.5761 10.5698 25.5861C10.419 26.5751 11.273 27.0775 11.9433 27.0439C12.6136 27.0103 12.7978 26.9262 13.0324 26.759L13.2001 27.0267H14.4228L14.9423 24.4136C15.0765 23.7604 15.2937 22.1854 13.0993 22.1854C12.6975 22.2028 12.2454 22.1859 11.3907 22.3536Z" fill="black"/>
<path fill-rule="evenodd" clip-rule="evenodd" d="M13.4012 24.8832C13.1834 24.8496 12.6975 24.7154 12.2785 25.0004C11.8595 25.2853 11.7425 25.7876 12.1782 25.9553C12.5975 26.1166 13.2163 25.8386 13.3006 25.4027L13.4012 24.8832Z" fill="white"/>
<path fill-rule="evenodd" clip-rule="evenodd" d="M32.5657 22.5711C32.2303 22.37 31.9961 22.337 31.5607 22.337C31.1253 22.337 30.1534 22.7532 29.9692 23.9282C29.7515 25.3186 30.7065 26.0053 32.0464 25.5532L32.4318 26.7259C31.9964 26.9267 31.5609 27.0272 30.8403 27.0272C29.4835 27.0272 28.0095 25.8215 28.6791 23.3753C29.1732 21.5728 30.7237 20.9127 31.6276 20.946C32.6998 20.9859 33.0855 21.3481 33.4204 21.7169L32.5657 22.5711ZM43.7064 22.7724C43.4546 22.588 43.3041 22.2028 42.6845 22.2028C41.9642 22.2028 40.8417 22.0687 40.205 24.2464C39.7798 25.7025 40.6404 27.0272 41.5785 27.0272C42.0144 27.0108 42.4499 26.8264 42.7176 26.6423L42.8858 27.0272H44.2926L45.4317 20.9299H44.058L43.7064 22.7724Z" fill="black"/>
<path fill-rule="evenodd" clip-rule="evenodd" d="M43.2374 24.7324C43.3715 24.2969 43.2981 23.7527 43.1533 23.5597C42.7514 23.0237 41.827 23.4474 41.5451 24.4977C41.361 25.1845 41.7628 25.704 42.2152 25.704C42.7014 25.704 43.0025 25.3186 43.2374 24.7324Z" fill="white"/>
<path fill-rule="evenodd" clip-rule="evenodd" d="M33.5037 22.3536L33.3029 23.392C33.6211 23.3586 34.4756 23.2248 34.9275 23.2412C35.3803 23.2581 35.8829 23.1909 35.7316 23.911C35.3967 23.9451 33.0516 23.5761 32.6831 25.5861C32.5321 26.5751 33.3863 27.0775 34.0566 27.0439C34.7269 27.0103 34.911 26.9262 35.1457 26.759L35.3134 27.0267H36.5356L37.0556 24.4136C37.1892 23.7605 37.407 22.1854 35.2124 22.1854C34.8105 22.2028 34.3584 22.1859 33.5037 22.3536Z" fill="black"/>
<path fill-rule="evenodd" clip-rule="evenodd" d="M35.5143 24.8832C35.2965 24.8496 34.8106 24.7154 34.3916 25.0004C33.9726 25.2853 33.8556 25.7876 34.2916 25.9553C34.7111 26.1166 35.3296 25.8386 35.4137 25.4027L35.5143 24.8832Z" fill="white"/>
<path fill-rule="evenodd" clip-rule="evenodd" d="M25.3666 27.0272L26.2544 22.2698H27.3771L27.4943 22.7388C27.695 22.5039 28.0802 22.2698 28.7334 22.2698L28.3985 23.5261C28.0802 23.5261 27.4602 23.4258 27.0752 24.8496L26.6734 27.0272H25.3666Z" fill="black"/>
</g>
<defs>
<clipPath id="clip0_324_704">
<rect width="47.9618" height="47.9618" fill="white" transform="translate(0.977051)"/>
</clipPath>
</defs>
</svg>
