<svg width="41" height="41" viewBox="0 0 41 41" fill="none" xmlns="http://www.w3.org/2000/svg">
<path d="M9.67816 11H23.7085C24.2608 11 24.7085 11.4477 24.7085 12V17.4543C24.7085 18.0066 25.1562 18.4543 25.7085 18.4543H31.3749C31.686 18.4543 31.9794 18.5991 32.1686 18.8461L33.4849 20.564C33.6069 20.7232 33.6782 20.9153 33.6895 21.1155L33.9407 25.5367C33.973 26.1058 33.5239 26.5867 32.954 26.5934L30.7753 26.619M10.1154 26.8614L12.3563 26.8351M24.7085 26.6901L18.3684 26.7645" stroke="#F4B223" stroke-linecap="round" stroke-linejoin="round"/>
<path d="M24.7085 12.8495H28.632C29.0362 12.8495 29.4006 13.0928 29.5556 13.4661L31.6498 18.5103" stroke="#F4B223" stroke-linecap="round" stroke-linejoin="round"/>
<path d="M8.36639 14.7552H16.8381" stroke="#F4B223" stroke-linecap="round" stroke-linejoin="round"/>
<path d="M7 18.2861H15.6356" stroke="#F4B223" stroke-linecap="round" stroke-linejoin="round"/>
<path d="M8.42108 22.0413H13.3401" stroke="#F4B223" stroke-linecap="round" stroke-linejoin="round"/>
<path d="M18.5243 26.469C18.5243 28.1549 17.1947 29.5 15.581 29.5C13.9672 29.5 12.6376 28.1549 12.6376 26.469C12.6376 24.7831 13.9672 23.438 15.581 23.438C17.1947 23.438 18.5243 24.7831 18.5243 26.469Z" stroke="#F4B223" stroke-linecap="round" stroke-linejoin="round"/>
<path d="M30.6579 26.469C30.6579 28.1549 29.3283 29.5 27.7146 29.5C26.1008 29.5 24.7712 28.1549 24.7712 26.469C24.7712 24.7831 26.1008 23.438 27.7146 23.438C29.3283 23.438 30.6579 24.7831 30.6579 26.469Z" stroke="#F4B223" stroke-linecap="round" stroke-linejoin="round"/>
<circle cx="20.5" cy="20.5" r="20" stroke="#F4B223"/>
</svg>
