<svg width="41" height="41" viewBox="0 0 41 41" fill="none" xmlns="http://www.w3.org/2000/svg">
<circle cx="20.5" cy="20.5" r="20" stroke="#F4B223"/>
<path fill-rule="evenodd" clip-rule="evenodd" d="M20.9681 10.0203C20.876 9.99323 20.7781 9.99323 20.6859 10.0203L12.1859 12.5203C12.016 12.5703 11.8852 12.7065 11.8421 12.8783L12.327 13C11.8421 12.8783 11.842 12.8784 11.842 12.8785L11.8419 12.879L11.8416 12.8803L11.8404 12.8851L11.8361 12.9025L11.8202 12.9684C11.8065 13.0257 11.787 13.1095 11.7628 13.2171C11.7146 13.4323 11.6481 13.7429 11.5743 14.128C11.4269 14.8976 11.2499 15.9674 11.1317 17.1682C10.8982 19.5423 10.8827 22.5338 11.872 24.7071C12.847 26.8492 15.0678 28.7888 16.9717 30.166C17.9347 30.8627 18.8385 31.4307 19.5014 31.8246C19.8331 32.0217 20.1052 32.1756 20.2951 32.2805C20.39 32.3331 20.4644 32.3734 20.5155 32.4007L20.5744 32.4321L20.59 32.4403L20.5943 32.4425L20.5955 32.4432L20.5959 32.4434C20.596 32.4434 20.5961 32.4435 20.827 32L20.5961 32.4435C20.7489 32.523 20.9318 32.5183 21.0802 32.4311L20.827 32C21.0802 32.4311 21.0803 32.4311 21.0805 32.431L21.0808 32.4308L21.0819 32.4301L21.0859 32.4278L21.1003 32.4192L21.1548 32.3866C21.2021 32.3581 21.2711 32.3162 21.3591 32.2617C21.5351 32.1528 21.7874 31.9934 22.0955 31.7903C22.7113 31.3843 23.5518 30.8019 24.4511 30.096C26.2309 28.6989 28.3131 26.7632 29.2793 24.7132C30.2938 22.5607 30.4102 19.5779 30.2951 17.201C30.237 15.9998 30.1181 14.9288 30.0139 14.158C29.9617 13.7724 29.9131 13.4612 29.8774 13.2456C29.8596 13.1379 29.8449 13.0539 29.8347 12.9965L29.8227 12.9306L29.8195 12.9132L29.8186 12.9084L29.8183 12.9071L29.8182 12.9067C29.8182 12.9065 29.8182 12.9064 29.327 13L29.8182 12.9064C29.7831 12.7223 29.648 12.5732 29.4681 12.5203L20.9681 10.0203ZM12.7386 13.4359L12.7472 13.3976L20.827 11.0212L28.8881 13.3921L28.8909 13.4091C28.9251 13.6159 28.9722 13.9173 29.0229 14.2921C29.1244 15.0422 29.2399 16.0837 29.2963 17.2493C29.4104 19.6059 29.2768 22.373 28.3747 24.2868C27.5152 26.1105 25.5974 27.9248 23.8337 29.3094C22.9612 29.9942 22.144 30.5605 21.545 30.9554C21.2458 31.1528 21.0015 31.307 20.8327 31.4115L20.8125 31.424L20.779 31.4054C20.5971 31.3049 20.3341 31.1561 20.0122 30.9649C19.3679 30.5821 18.4906 30.0305 17.5578 29.3558C15.6703 27.9904 13.6411 26.1799 12.7821 24.2929C11.9108 22.3787 11.8953 19.6202 12.1269 17.2661C12.2414 16.1029 12.4132 15.0642 12.5565 14.3161C12.6281 13.9424 12.6924 13.6421 12.7386 13.4359ZM25.4001 18.8C25.5658 18.5791 25.521 18.2657 25.3001 18.1C25.0792 17.9343 24.7658 17.9791 24.6001 18.2L20.4673 23.7105L16.8738 19.6678C16.6904 19.4614 16.3743 19.4428 16.1679 19.6263C15.9615 19.8098 15.943 20.1258 16.1264 20.3322L20.1264 24.8322C20.2261 24.9444 20.3709 25.0058 20.5209 24.9996C20.6709 24.9933 20.8101 24.9201 20.9001 24.8L25.4001 18.8Z" fill="#F4B223"/>
</svg>
