<svg width="41" height="41" viewBox="0 0 41 41" fill="none" xmlns="http://www.w3.org/2000/svg">
<circle cx="20.5" cy="20.5" r="20" stroke="#F4B223"/>
<path fill-rule="evenodd" clip-rule="evenodd" d="M20.0343 8.94837C20.0491 8.90402 20.1062 8.78889 20.2188 8.63887C20.3263 8.49542 20.4639 8.34784 20.615 8.22999C20.9338 7.98137 21.1772 7.95162 21.3728 8.06898C21.5629 8.18306 21.9091 8.39015 22.3612 8.66049L17.2283 17.0014H15.3839L19.9927 9.04077C20.0097 9.01146 20.0236 8.9805 20.0343 8.94837ZM18.4025 17.0014L23.2195 9.17379C23.5817 9.39041 23.9768 9.62676 24.3908 9.87459L19.989 17.0014H18.4025ZM20.0823 18.0014C20.1925 18.0407 20.311 18.0392 20.4174 18.0014H28.1323C28.2424 18.0407 28.3609 18.0392 28.4674 18.0014H29.5C29.7761 18.0014 30 17.7776 30 17.5014C30 17.2253 29.7761 17.0014 29.5 17.0014H29.2898C29.4176 16.8327 29.5538 16.6562 29.6941 16.4744L29.7902 16.3499C30.131 15.908 30.489 15.4395 30.7689 15.0127C31.4612 15.1061 32 15.6997 32 16.4233V19.5014H31.5H27C25.6193 19.5014 24.5 20.6207 24.5 22.0014C24.5 23.3821 25.6193 24.5014 27 24.5014H31.5H32V27.6017C32 28.4301 31.3284 29.1017 30.5 29.1017H11.5C10.6716 29.1017 10 28.4301 10 27.6017V16.4217C10 15.5932 10.6716 14.9217 11.5 14.9217H15.4325L14.2284 17.0014H12.5C12.2239 17.0014 12 17.2253 12 17.5014C12 17.7776 12.2239 18.0014 12.5 18.0014H14.3324C14.4429 18.0409 14.5612 18.0391 14.6674 18.0014H17.3224C17.4326 18.0407 17.5509 18.0391 17.6573 18.0014H20.0823ZM21.1643 17.0014L25.2488 10.3884C26.7082 11.2626 28.2763 12.2042 29.4208 12.8978C29.4628 12.9233 29.5082 12.9423 29.5553 12.9544C29.5762 12.9688 29.6075 12.9929 29.647 13.0287C29.7454 13.1179 29.8622 13.2504 29.9591 13.4056C30.1651 13.7355 30.2035 14.0238 30.0713 14.2442C29.813 14.6746 29.4162 15.1973 28.9983 15.7393L28.8945 15.8738L28.8944 15.8738L28.8944 15.8739L28.8942 15.8741C28.5964 16.2598 28.2937 16.6519 28.0517 17.0014H21.1643ZM16 13.9414L19.1053 8.57778C19.1718 8.40569 19.2866 8.21508 19.4187 8.03888C19.5699 7.83732 19.7677 7.62265 20 7.44149C20.4479 7.0921 21.1628 6.77684 21.8872 7.21149C22.0987 7.33839 22.5061 7.58195 23.0386 7.90045L23.0407 7.9017L23.041 7.90185C24.799 8.95311 27.919 10.8189 29.8711 12.0014C29.8897 12.0074 29.9058 12.0135 29.9192 12.0188C29.9742 12.0409 30.0241 12.0681 30.0665 12.0942C30.1515 12.1467 30.2374 12.2142 30.3186 12.2878C30.4817 12.4357 30.6591 12.6385 30.8074 12.876C30.9979 13.1812 31.1759 13.6083 31.1467 14.0672C32.2063 14.3228 33 15.2773 33 16.4233V27.6017C33 28.9824 31.8807 30.1017 30.5 30.1017H11.5C10.1193 30.1017 9 28.9824 9 27.6017V16.4217C9 15.041 10.1193 13.9217 11.5 13.9217H16V13.9414ZM31.5 20.5014H27C26.1716 20.5014 25.5 21.173 25.5 22.0014C25.5 22.8298 26.1716 23.5014 27 23.5014H31.5V20.5014Z" fill="#F4B223"/>
</svg>
